<svg width="48" height="49" viewBox="0 0 48 49" fill="none" xmlns="http://www.w3.org/2000/svg">
    <path fill-rule="evenodd" clip-rule="evenodd" d="M36.954 23.339C37.6707 22.9235 38.5885 23.1677 39.004 23.8844L43.2977 31.2906C43.7132 32.0073 43.4691 32.9251 42.7524 33.3406C42.0357 33.7561 41.1179 33.512 40.7024 32.7953L36.4086 25.389C35.9931 24.6723 36.2373 23.7545 36.954 23.339Z" fill="#555"/>
    <path fill-rule="evenodd" clip-rule="evenodd" d="M28.6523 27.2844C29.4682 27.1407 30.2461 27.6856 30.3899 28.5014L31.7211 36.0577C31.8648 36.8735 31.32 37.6515 30.5041 37.7952C29.6883 37.9389 28.9103 37.3941 28.7666 36.5782L27.4354 29.022C27.2916 28.2061 27.8365 27.4282 28.6523 27.2844Z" fill="#555"/>
    <path fill-rule="evenodd" clip-rule="evenodd" d="M19.3284 27.2656C20.1444 27.409 20.6896 28.1867 20.5462 29.0026L19.2149 36.5776C19.0715 37.3935 18.2938 37.9387 17.4779 37.7953C16.662 37.6519 16.1168 36.8742 16.2602 36.0583L17.5914 28.4833C17.7348 27.6674 18.5125 27.1222 19.3284 27.2656Z" fill="#555"/>
    <path fill-rule="evenodd" clip-rule="evenodd" d="M11.0244 23.3374C11.742 23.7513 11.9882 24.6686 11.5743 25.3862L7.28054 32.8299C6.86661 33.5475 5.94932 33.7937 5.23172 33.3798C4.51412 32.9658 4.26794 32.0486 4.68188 31.331L8.97563 23.8872C9.38956 23.1696 10.3068 22.9234 11.0244 23.3374Z" fill="#555"/>
    <path fill-rule="evenodd" clip-rule="evenodd" d="M5.05755 19.2698C5.70201 18.7493 6.64643 18.8497 7.16696 19.4942C10.1513 23.189 15.5388 27.7679 24.0001 27.7679C32.4613 27.7679 37.8488 23.189 40.8331 19.4942C41.3537 18.8497 42.2981 18.7493 42.9426 19.2698C43.587 19.7903 43.6875 20.7347 43.167 21.3792C39.8513 25.4844 33.6888 30.7679 24.0001 30.7679C14.3113 30.7679 8.14884 25.4844 4.83314 21.3792C4.31261 20.7347 4.41308 19.7903 5.05755 19.2698Z" fill="#555"/>

</svg>
